<mxfile host="Electron" agent="Mozilla/5.0 (Windows NT 10.0; Win64; x64) AppleWebKit/537.36 (KHTML, like Gecko) draw.io/25.0.2 Chrome/128.0.6613.186 Electron/32.2.5 Safari/537.36" version="25.0.2">
  <diagram name="第 1 页" id="mHi4XNvlJZAQIr8-y_Rf">
    <mxGraphModel dx="1098" dy="987" grid="1" gridSize="10" guides="1" tooltips="1" connect="1" arrows="1" fold="1" page="1" pageScale="1" pageWidth="827" pageHeight="1169" math="0" shadow="0">
      <root>
        <mxCell id="0" />
        <mxCell id="1" parent="0" />
        <mxCell id="GfrcG74RFH0WNDXV7pOx-1" value="" style="shape=umlActor;verticalLabelPosition=bottom;verticalAlign=top;html=1;outlineConnect=0;" parent="1" vertex="1">
          <mxGeometry x="90" y="90" width="30" height="60" as="geometry" />
        </mxCell>
        <mxCell id="GfrcG74RFH0WNDXV7pOx-2" value="：渔夫" style="rounded=0;whiteSpace=wrap;html=1;" parent="1" vertex="1">
          <mxGeometry x="75" y="158" width="60" height="30" as="geometry" />
        </mxCell>
        <mxCell id="GfrcG74RFH0WNDXV7pOx-3" value="：小船" style="rounded=0;whiteSpace=wrap;html=1;" parent="1" vertex="1">
          <mxGeometry x="280" y="158" width="60" height="30" as="geometry" />
        </mxCell>
        <mxCell id="GfrcG74RFH0WNDXV7pOx-4" value="：马林鱼" style="rounded=0;whiteSpace=wrap;html=1;" parent="1" vertex="1">
          <mxGeometry x="490" y="158" width="60" height="30" as="geometry" />
        </mxCell>
        <mxCell id="GfrcG74RFH0WNDXV7pOx-5" value="" style="rounded=0;whiteSpace=wrap;html=1;" parent="1" vertex="1">
          <mxGeometry x="95" y="225" width="20" height="360" as="geometry" />
        </mxCell>
        <mxCell id="GfrcG74RFH0WNDXV7pOx-6" value="" style="rounded=0;whiteSpace=wrap;html=1;" parent="1" vertex="1">
          <mxGeometry x="300" y="225" width="20" height="155" as="geometry" />
        </mxCell>
        <mxCell id="GfrcG74RFH0WNDXV7pOx-7" value="" style="rounded=0;whiteSpace=wrap;html=1;" parent="1" vertex="1">
          <mxGeometry x="510" y="410" width="20" height="175" as="geometry" />
        </mxCell>
        <mxCell id="GfrcG74RFH0WNDXV7pOx-9" style="edgeStyle=none;rounded=0;orthogonalLoop=1;jettySize=auto;html=1;entryX=0.012;entryY=0.099;entryDx=0;entryDy=0;entryPerimeter=0;exitX=0.96;exitY=0.04;exitDx=0;exitDy=0;exitPerimeter=0;endArrow=open;endFill=0;" parent="1" source="GfrcG74RFH0WNDXV7pOx-5" target="GfrcG74RFH0WNDXV7pOx-6" edge="1">
          <mxGeometry relative="1" as="geometry">
            <mxPoint x="120" y="240" as="sourcePoint" />
          </mxGeometry>
        </mxCell>
        <mxCell id="GfrcG74RFH0WNDXV7pOx-10" value="操作船只：靠近马林鱼" style="text;strokeColor=none;align=center;fillColor=none;html=1;verticalAlign=middle;whiteSpace=wrap;rounded=0;" parent="1" vertex="1">
          <mxGeometry x="134" y="212" width="140" height="30" as="geometry" />
        </mxCell>
        <mxCell id="GfrcG74RFH0WNDXV7pOx-12" style="edgeStyle=none;rounded=0;orthogonalLoop=1;jettySize=auto;html=1;entryX=-0.05;entryY=0.061;entryDx=0;entryDy=0;entryPerimeter=0;exitX=1.014;exitY=0.544;exitDx=0;exitDy=0;exitPerimeter=0;endArrow=open;endFill=0;" parent="1" source="GfrcG74RFH0WNDXV7pOx-5" target="GfrcG74RFH0WNDXV7pOx-7" edge="1">
          <mxGeometry relative="1" as="geometry">
            <mxPoint x="114" y="420" as="sourcePoint" />
            <mxPoint x="300" y="421" as="targetPoint" />
          </mxGeometry>
        </mxCell>
        <mxCell id="GfrcG74RFH0WNDXV7pOx-13" style="edgeStyle=none;rounded=0;orthogonalLoop=1;jettySize=auto;html=1;entryX=1.005;entryY=0.391;entryDx=0;entryDy=0;entryPerimeter=0;endArrow=open;endFill=0;exitX=-0.055;exitY=0.911;exitDx=0;exitDy=0;exitPerimeter=0;dashed=1;dashPattern=8 8;" parent="1" edge="1">
          <mxGeometry relative="1" as="geometry">
            <mxPoint x="298.9000000000001" y="290.2049999999999" as="sourcePoint" />
            <mxPoint x="115.09999999999991" y="289.76" as="targetPoint" />
          </mxGeometry>
        </mxCell>
        <mxCell id="GfrcG74RFH0WNDXV7pOx-14" style="edgeStyle=none;rounded=0;orthogonalLoop=1;jettySize=auto;html=1;entryX=0;entryY=0.5;entryDx=0;entryDy=0;exitX=1;exitY=0.75;exitDx=0;exitDy=0;endArrow=open;endFill=0;" parent="1" source="GfrcG74RFH0WNDXV7pOx-5" target="GfrcG74RFH0WNDXV7pOx-7" edge="1">
          <mxGeometry relative="1" as="geometry">
            <mxPoint x="125" y="431" as="sourcePoint" />
            <mxPoint x="519" y="431" as="targetPoint" />
          </mxGeometry>
        </mxCell>
        <mxCell id="GfrcG74RFH0WNDXV7pOx-15" value="小船与马林鱼距离为0" style="text;strokeColor=none;align=center;fillColor=none;html=1;verticalAlign=middle;whiteSpace=wrap;rounded=0;" parent="1" vertex="1">
          <mxGeometry x="141" y="263" width="130" height="30" as="geometry" />
        </mxCell>
        <mxCell id="GfrcG74RFH0WNDXV7pOx-16" style="edgeStyle=none;rounded=0;orthogonalLoop=1;jettySize=auto;html=1;entryX=0.886;entryY=0.637;entryDx=0;entryDy=0;entryPerimeter=0;endArrow=open;endFill=0;exitX=0;exitY=0.25;exitDx=0;exitDy=0;dashed=1;dashPattern=8 8;" parent="1" edge="1">
          <mxGeometry relative="1" as="geometry">
            <mxPoint x="510" y="444.75" as="sourcePoint" />
            <mxPoint x="112.72000000000003" y="445.31999999999994" as="targetPoint" />
          </mxGeometry>
        </mxCell>
        <mxCell id="GfrcG74RFH0WNDXV7pOx-17" style="edgeStyle=none;rounded=0;orthogonalLoop=1;jettySize=auto;html=1;entryX=0.981;entryY=0.935;entryDx=0;entryDy=0;entryPerimeter=0;endArrow=open;endFill=0;exitX=-0.079;exitY=0.86;exitDx=0;exitDy=0;dashed=1;dashPattern=8 8;exitPerimeter=0;" parent="1" source="GfrcG74RFH0WNDXV7pOx-7" target="GfrcG74RFH0WNDXV7pOx-5" edge="1">
          <mxGeometry relative="1" as="geometry">
            <mxPoint x="520" y="464" as="sourcePoint" />
            <mxPoint x="123" y="464" as="targetPoint" />
          </mxGeometry>
        </mxCell>
        <mxCell id="GfrcG74RFH0WNDXV7pOx-18" value="击打马林鱼" style="text;strokeColor=none;align=center;fillColor=none;html=1;verticalAlign=middle;whiteSpace=wrap;rounded=0;" parent="1" vertex="1">
          <mxGeometry x="245" y="396" width="130" height="30" as="geometry" />
        </mxCell>
        <mxCell id="GfrcG74RFH0WNDXV7pOx-19" value="击打马林鱼" style="text;strokeColor=none;align=center;fillColor=none;html=1;verticalAlign=middle;whiteSpace=wrap;rounded=0;" parent="1" vertex="1">
          <mxGeometry x="245" y="470" width="130" height="30" as="geometry" />
        </mxCell>
        <mxCell id="GfrcG74RFH0WNDXV7pOx-20" value="已捕获马林鱼" style="text;strokeColor=none;align=center;fillColor=none;html=1;verticalAlign=middle;whiteSpace=wrap;rounded=0;" parent="1" vertex="1">
          <mxGeometry x="245" y="555" width="130" height="30" as="geometry" />
        </mxCell>
        <mxCell id="GfrcG74RFH0WNDXV7pOx-21" value="马林鱼血量" style="text;strokeColor=none;align=center;fillColor=none;html=1;verticalAlign=middle;whiteSpace=wrap;rounded=0;" parent="1" vertex="1">
          <mxGeometry x="245" y="441" width="130" height="30" as="geometry" />
        </mxCell>
        <mxCell id="GfrcG74RFH0WNDXV7pOx-22" style="edgeStyle=none;rounded=0;orthogonalLoop=1;jettySize=auto;html=1;entryX=0.5;entryY=0;entryDx=0;entryDy=0;endArrow=none;endFill=0;exitX=0.5;exitY=1;exitDx=0;exitDy=0;dashed=1;dashPattern=8 8;" parent="1" source="GfrcG74RFH0WNDXV7pOx-4" target="GfrcG74RFH0WNDXV7pOx-7" edge="1">
          <mxGeometry relative="1" as="geometry">
            <mxPoint x="520" y="464" as="sourcePoint" />
            <mxPoint x="123" y="464" as="targetPoint" />
          </mxGeometry>
        </mxCell>
        <mxCell id="GfrcG74RFH0WNDXV7pOx-23" style="edgeStyle=none;rounded=0;orthogonalLoop=1;jettySize=auto;html=1;entryX=0.5;entryY=0;entryDx=0;entryDy=0;endArrow=none;endFill=0;exitX=0.5;exitY=1;exitDx=0;exitDy=0;dashed=1;dashPattern=8 8;" parent="1" source="GfrcG74RFH0WNDXV7pOx-3" target="GfrcG74RFH0WNDXV7pOx-6" edge="1">
          <mxGeometry relative="1" as="geometry">
            <mxPoint x="530" y="198" as="sourcePoint" />
            <mxPoint x="530" y="420" as="targetPoint" />
          </mxGeometry>
        </mxCell>
        <mxCell id="GfrcG74RFH0WNDXV7pOx-24" style="edgeStyle=none;rounded=0;orthogonalLoop=1;jettySize=auto;html=1;entryX=0.5;entryY=0;entryDx=0;entryDy=0;endArrow=none;endFill=0;exitX=0.5;exitY=1;exitDx=0;exitDy=0;dashed=1;dashPattern=8 8;" parent="1" source="GfrcG74RFH0WNDXV7pOx-2" target="GfrcG74RFH0WNDXV7pOx-5" edge="1">
          <mxGeometry relative="1" as="geometry">
            <mxPoint x="104.75999999999999" y="188" as="sourcePoint" />
            <mxPoint x="104.75999999999999" y="410" as="targetPoint" />
          </mxGeometry>
        </mxCell>
        <mxCell id="GfrcG74RFH0WNDXV7pOx-25" value=".&lt;div&gt;.&lt;/div&gt;&lt;div&gt;.&lt;/div&gt;" style="text;strokeColor=none;align=center;fillColor=none;html=1;verticalAlign=middle;whiteSpace=wrap;rounded=0;fontStyle=1" parent="1" vertex="1">
          <mxGeometry x="280" y="510" width="60" height="30" as="geometry" />
        </mxCell>
        <mxCell id="HqCz8bmMkqx0q7Onk-yF-3" value="操作船只：停止" style="text;strokeColor=none;align=center;fillColor=none;html=1;verticalAlign=middle;whiteSpace=wrap;rounded=0;" vertex="1" parent="1">
          <mxGeometry x="136" y="299" width="140" height="30" as="geometry" />
        </mxCell>
        <mxCell id="HqCz8bmMkqx0q7Onk-yF-4" style="edgeStyle=none;rounded=0;orthogonalLoop=1;jettySize=auto;html=1;entryX=0.012;entryY=0.099;entryDx=0;entryDy=0;entryPerimeter=0;exitX=0.96;exitY=0.04;exitDx=0;exitDy=0;exitPerimeter=0;endArrow=open;endFill=0;" edge="1" parent="1">
          <mxGeometry relative="1" as="geometry">
            <mxPoint x="115" y="327" as="sourcePoint" />
            <mxPoint x="301" y="328" as="targetPoint" />
          </mxGeometry>
        </mxCell>
        <mxCell id="HqCz8bmMkqx0q7Onk-yF-5" style="edgeStyle=none;rounded=0;orthogonalLoop=1;jettySize=auto;html=1;entryX=0.95;entryY=0.389;entryDx=0;entryDy=0;entryPerimeter=0;endArrow=open;endFill=0;dashed=1;dashPattern=8 8;" edge="1" parent="1" target="GfrcG74RFH0WNDXV7pOx-5">
          <mxGeometry relative="1" as="geometry">
            <mxPoint x="300" y="365" as="sourcePoint" />
            <mxPoint x="112.09999999999991" y="366.76" as="targetPoint" />
          </mxGeometry>
        </mxCell>
        <mxCell id="HqCz8bmMkqx0q7Onk-yF-6" value="小船已停止" style="text;strokeColor=none;align=center;fillColor=none;html=1;verticalAlign=middle;whiteSpace=wrap;rounded=0;" vertex="1" parent="1">
          <mxGeometry x="138" y="340" width="130" height="30" as="geometry" />
        </mxCell>
      </root>
    </mxGraphModel>
  </diagram>
</mxfile>
